<mxfile host="app.diagrams.net" modified="2024-05-29T08:38:10.644Z" agent="Mozilla/5.0 (X11; Ubuntu; Linux x86_64; rv:125.0) Gecko/20100101 Firefox/125.0" version="24.4.9" etag="etqGyDsDrNvSk3SjJPJR" type="github">
  <diagram name="Pagina-1" id="98qzeb5G9U1v5VFIJB_s">
    <mxGraphModel>
      <root>
        <mxCell id="0" />
        <mxCell id="1" parent="0" />
      </root>
    </mxGraphModel>
  </diagram>
</mxfile>
